<?xml version="1.0" standalone="no"?><!-- Generator: Gravit.io --><svg xmlns="http://www.w3.org/2000/svg" xmlns:xlink="http://www.w3.org/1999/xlink" style="isolation:isolate" viewBox="0 0 200 200" width="200" height="200"><defs><clipPath id="_clipPath_ZgXZShYfuadICqPwzEsY5HeA60D9SbdP"><rect width="200" height="200"/></clipPath></defs><g clip-path="url(#_clipPath_ZgXZShYfuadICqPwzEsY5HeA60D9SbdP)"><g id="Group"><path d=" M 164.189 128.108 L 164.189 74.189 C 164.189 38.762 135.427 10 100 10 L 100 10 C 64.573 10 35.811 38.762 35.811 74.189 L 35.811 128.108 L 164.189 128.108 Z " fill="rgb(78,78,70)"/><path d="M 37.957 112.703 L 162.043 112.703 C 168.896 112.703 174.459 118.266 174.459 125.12 L 174.459 125.962 C 174.459 132.815 168.896 138.378 162.043 138.378 L 37.957 138.378 C 31.104 138.378 25.541 132.815 25.541 125.962 L 25.541 125.12 C 25.541 118.266 31.104 112.703 37.957 112.703 Z" style="stroke:none;fill:#4E4E46;stroke-miterlimit:10;"/><path d="M 97.432 102.432 L 97.432 102.432 C 117.272 102.432 133.378 118.539 133.378 138.378 L 133.378 164.054 C 133.378 183.893 117.272 200 97.432 200 L 97.432 200 C 77.593 200 61.486 183.893 61.486 164.054 L 61.486 138.378 C 61.486 118.539 77.593 102.432 97.432 102.432 Z" style="stroke:none;fill:#4E4E46;stroke-miterlimit:10;"/><path d="M 56.351 81.892 L 76.892 81.892 C 82.56 81.892 87.162 86.494 87.162 92.162 L 87.162 92.162 C 87.162 97.83 82.56 102.432 76.892 102.432 L 56.351 102.432 C 50.683 102.432 46.081 97.83 46.081 92.162 L 46.081 92.162 C 46.081 86.494 50.683 81.892 56.351 81.892 Z" style="stroke:none;fill:#000000;stroke-miterlimit:10;"/><path d="M 123.108 81.892 L 143.649 81.892 C 149.317 81.892 153.919 86.494 153.919 92.162 L 153.919 92.162 C 153.919 97.83 149.317 102.432 143.649 102.432 L 123.108 102.432 C 117.44 102.432 112.838 97.83 112.838 92.162 L 112.838 92.162 C 112.838 86.494 117.44 81.892 123.108 81.892 Z" style="stroke:none;fill:#000000;stroke-miterlimit:10;"/><path d=" M 128.243 92.162 C 128.243 89.328 130.544 87.027 133.378 87.027 C 136.213 87.027 138.514 89.328 138.514 92.162 C 138.514 94.996 136.213 97.297 133.378 97.297 C 130.544 97.297 128.243 94.996 128.243 92.162 Z " fill="rgb(107,162,0)"/><path d=" M 61.486 92.162 C 61.486 89.328 63.787 87.027 66.622 87.027 C 69.456 87.027 71.757 89.328 71.757 92.162 C 71.757 94.996 69.456 97.297 66.622 97.297 C 63.787 97.297 61.486 94.996 61.486 92.162 Z " fill="rgb(107,162,0)"/><path d=" M 109.944 125.541 L 100 118.088 L 90.056 125.541 L 95.028 116.929 L 100 108.317 L 104.972 116.929 L 109.944 125.541 Z " fill="rgb(0,0,0)"/><rect x="61.486" y="158" width="71.892" height="2" transform="matrix(1,0,0,1,0,0)" fill="rgb(0,0,0)"/><rect x="119.174" y="158" width="6" height="2" transform="matrix(0,1,-1,0,281.174,36.826)" fill="rgb(0,0,0)"/><rect x="112.105" y="158" width="6" height="2" transform="matrix(0,1,-1,0,274.105,43.895)" fill="rgb(0,0,0)"/><rect x="105.036" y="158" width="6" height="2" transform="matrix(0,1,-1,0,267.036,50.964)" fill="rgb(0,0,0)"/><rect x="97.967" y="158" width="6" height="2" transform="matrix(0,1,-1,0,259.967,58.033)" fill="rgb(0,0,0)"/><rect x="90.898" y="158" width="6" height="2" transform="matrix(0,1,-1,0,252.898,65.102)" fill="rgb(0,0,0)"/><rect x="83.829" y="158" width="6" height="2" transform="matrix(0,1,-1,0,245.829,72.171)" fill="rgb(0,0,0)"/><rect x="76.76" y="158" width="6" height="2" transform="matrix(0,1,-1,0,238.76,79.24)" fill="rgb(0,0,0)"/><rect x="69.691" y="158" width="6" height="2" transform="matrix(0,1,-1,0,231.691,86.309)" fill="rgb(0,0,0)"/><rect x="62.622" y="158" width="6" height="2" transform="matrix(0,1,-1,0,224.622,93.378)" fill="rgb(0,0,0)"/><rect x="126.243" y="158" width="6" height="2" transform="matrix(0,1,-1,0,288.243,29.757)" fill="rgb(0,0,0)"/></g></g></svg>